<svg enable-background="new 0 0 1714 3333" image-rendering="optimizeQuality" shape-rendering="geometricPrecision" text-rendering="geometricPrecision" viewBox="0 0 1714 3333" xmlns="http://www.w3.org/2000/svg"><path d="m1163 607h456v-513h-459c-182 0-348 74-467 194-120 120-194 285-194 467v304c0 26-21 47-47 47h-358v513h358c26 0 47 21 47 47v1572h513v-1572c0-26 21-47 47-47h466l85-513h-552c-26 0-47-21-47-47v-304c0-40 17-78 44-105s64-44 105-44h2zm504 94h-508c-14 0-27 7-36 16-10 10-16 23-16 38v256h560c3 0 5 0 8 1 26 4 43 29 39 54l-101 604c-2 24-23 42-47 42h-459v1572c0 26-21 47-47 47h-607c-26 0-47-21-47-47v-1572h-358c-26 0-47-21-47-47v-607c0-26 21-47 47-47h358v-256c0-208 85-397 222-534s326-222 534-222h506c26 0 47 21 47 47v607c0 26-21 47-47 47z" fill="#fff"/></svg>