<svg viewBox="0 0 23.76 23.7" xmlns="http://www.w3.org/2000/svg"><g fill="#ececed"><path d="m7.07 22.69c-.14 0-.28-.05-.4-.15-.9-.77-1.52-1.86-2.03-2.82-1.93-3.62-2.32-7.62-1.09-10.99.55-1.51 1.45-2.83 2.59-3.81.28-.24.58-.47.9-.67 3.81-2.46 8.97-1.59 11.75 1.97.4.51.72 1.05 1.03 1.57.25.42.49.82.76 1.21.45.63 1.6 1.3 2.73 1.6.33.09.52.42.43.75s-.42.52-.75.43c-1.1-.29-2.65-1.01-3.41-2.08-.31-.43-.57-.87-.82-1.3-.3-.51-.59-.99-.94-1.44-2.35-3.02-6.89-3.77-10.11-1.69-.27.17-.53.37-.77.57-.98.84-1.76 1.98-2.24 3.3-1.11 3.03-.74 6.67 1.02 9.99.46.86 1.01 1.84 1.75 2.46.26.22.29.61.07.86-.12.14-.29.22-.47.22z"/><path d="m12.96 23.7c-.12 0-.23-.03-.34-.1-1.56-1.05-3.53-2.54-4.86-4.72l-.03-.05c-2.2-3.64-2.68-8.99.76-11.72 1.25-.99 2.86-1.37 4.43-1.03.79.17 1.54.52 2.18 1 1.05.81 1.76 1.86 2.44 2.89.32.48.66.98 1.02 1.44.98 1.23 2.39 2.15 4.43 2.88.31.11.48.46.36.77-.11.31-.46.48-.77.36-2.26-.81-3.84-1.85-4.97-3.27-.39-.49-.74-1.01-1.08-1.52-.66-.98-1.28-1.91-2.18-2.6-.49-.38-1.08-.65-1.7-.78-1.21-.26-2.46.03-3.42.8-2.17 1.72-3.07 5.87-.48 10.16l.03.05c.94 1.54 2.33 2.88 4.5 4.35.28.19.35.56.16.83-.12.17-.31.26-.5.26z"/><path d="m.87 14.9c-.26 0-.5-.17-.58-.44-.21-.75-.32-2.05-.29-3.21.09-2.88 1.43-5.78 3.67-7.96 2.4-2.33 5.79-3.52 9.3-3.25 1.58.12 3.89.57 5.92 2.05 1.45 1.06 2.68 2.57 3.77 4.61.15.29.04.65-.25.81-.29.15-.65.04-.81-.25-1-1.88-2.12-3.26-3.42-4.21-1.4-1.02-3.28-1.67-5.3-1.82-3.17-.23-6.22.83-8.37 2.92-2.02 1.97-3.23 4.57-3.31 7.14-.03 1.04.07 2.22.24 2.86.09.32-.1.65-.42.74-.05.01-.11.02-.16.02h.01z"/><path d="m16.73 22.69c-.1 0-.2-.02-.29-.07-.82-.44-1.7-.94-2.56-1.56-1.81-1.32-4.88-4.1-5.07-7.88-.1-2 .88-4.09 2.96-4.23 1.9-.12 2.75 1.55 3.37 2.78.17.33.32.64.48.9 1.25 1.99 2.87 2.85 4.75 3.85.48.25.97.51 1.46.8.29.17.39.54.22.84-.17.29-.54.39-.84.22-.47-.27-.96-.53-1.43-.78-1.87-.99-3.79-2.01-5.22-4.28-.19-.31-.36-.64-.54-.99-.67-1.32-1.18-2.17-2.2-2.11-1.44.09-1.88 1.81-1.82 2.94.17 3.27 2.93 5.76 4.57 6.95.79.58 1.63 1.05 2.42 1.47.3.16.41.53.25.83-.11.21-.32.32-.54.32z"/><path d="m19.44 20.8c-.07 0-.14-.01-.21-.04-6.98-2.56-7.74-7.91-7.77-8.13-.04-.33.19-.63.52-.67s.63.19.67.52c.03.2.72 4.87 6.99 7.16.31.11.47.46.36.77-.09.24-.32.39-.56.39z"/></g></svg>