<svg viewBox="0 0 18.83 18.83" xmlns="http://www.w3.org/2000/svg"><path d="m13.18 3.56c0-.2.08-.4.22-.54.15-.14.34-.22.54-.22h1.01c.42 0 .77.34.77.77s-.34.77-.77.77h-1.01c-.2 0-.4-.08-.54-.23-.14-.14-.22-.34-.22-.54zm1.81 13.73h-11.15c-1.27 0-2.3-1.03-2.3-2.3v-4.81h3.51c.24 1.38 1.12 2.57 2.37 3.2s2.73.63 3.99 0c1.25-.63 2.13-1.82 2.37-3.2h3.51v4.81c0 1.27-1.03 2.3-2.3 2.3zm-2.67-7.88c0 1.18-.71 2.24-1.8 2.69s-2.34.2-3.17-.63-1.08-2.08-.63-3.17 1.51-1.8 2.69-1.8c1.61 0 2.91 1.3 2.91 2.91zm-8.48-7.87h11.15c1.27 0 2.3 1.03 2.3 2.3v4.81h-3.51c-.24-1.38-1.12-2.57-2.37-3.2s-2.73-.63-3.99 0c-1.25.63-2.13 1.82-2.37 3.2h-3.51v-4.81c0-1.27 1.03-2.3 2.3-2.3zm11.15-1.54h-11.15c-2.12 0-3.84 1.72-3.84 3.84v11.15c0 2.12 1.72 3.83 3.84 3.84h11.15c2.12 0 3.84-1.72 3.84-3.84v-11.15c0-2.12-1.72-3.84-3.84-3.84z" fill="#fff"/></svg>