<svg viewBox="0 0 18.83 18.83" xmlns="http://www.w3.org/2000/svg"><path d="m13.17 11.93c.08-.8.13-1.64.13-2.51s-.05-1.71-.13-2.51h4.01c.26.79.4 1.63.4 2.51s-.14 1.72-.4 2.51zm-1.47 5.32c.24-.41.46-.88.65-1.41.28-.78.5-1.68.66-2.66h3.65c-1.02 1.95-2.8 3.44-4.96 4.07zm-1.42-.14c-.27.32-.5.44-.68.46-.03 0-.06 0-.09 0-.19-.01-.42-.12-.71-.46-.3-.36-.62-.94-.88-1.69-.23-.64-.42-1.4-.57-2.24h4.39c-.15.84-.34 1.6-.57 2.24-.27.75-.58 1.33-.88 1.69zm-8.1-3.93h3.88c.16.98.38 1.88.66 2.66.2.56.43 1.05.69 1.47-2.28-.58-4.17-2.1-5.23-4.13zm-.92-3.77c0-.88.14-1.72.4-2.51h4.23c-.08.8-.13 1.64-.13 2.51s.05 1.71.13 2.51h-4.24c-.26-.79-.4-1.63-.4-2.51zm6.14-7.9c-.26.43-.49.92-.69 1.48-.28.77-.5 1.67-.66 2.66h-3.87c1.06-2.04 2.95-3.56 5.22-4.14zm1.38.21c.29-.34.52-.45.71-.46h.08c.19.02.41.13.69.46.3.36.62.94.88 1.69.23.64.42 1.4.56 2.23h-4.37c.15-.84.34-1.6.56-2.23.27-.75.58-1.33.89-1.69zm3.25 7.69c0 .88-.06 1.71-.15 2.51h-4.71c-.09-.8-.15-1.63-.15-2.51s.06-1.71.15-2.51h4.72c.09.8.15 1.63.15 2.51zm4.61-3.77h-3.65c-.16-.98-.38-1.88-.66-2.66-.19-.53-.4-1-.65-1.41 2.16.62 3.94 2.11 4.96 4.07zm-7.22-5.64c-5.2 0-9.42 4.22-9.42 9.42s4.22 9.42 9.42 9.42 9.42-4.22 9.42-9.42-4.23-9.42-9.42-9.42z" fill="#fff"/></svg>