<svg viewBox="0 0 19.79 19.79" xmlns="http://www.w3.org/2000/svg"><path d="m11.73 11.76-1.02.54c-.15.08-.41.04-.53-.09-.04-.04-.07-.07-.11-.12-.08-.08-.17-.19-.26-.31-.28-.34-.55-.75-.79-1.22s-.42-.92-.55-1.34c-.04-.15-.13-.55-.13-.55-.04-.17.07-.4.23-.48l1.02-.54c.55-.29.81-.97.59-1.55l-.96-2.08c-.23-.62-.79-1-1.37-.69l-1.54.8c-1.77.93-1.2 4.84.31 7.74 1.52 2.9 4.36 5.51 6.13 4.59l1.54-.8c.59-.31.66-.92.28-1.46l-1.23-2.04c-.35-.51-1.06-.68-1.61-.39zm-11.27-4.82c1.63-5.22 7.18-8.12 12.39-6.48s8.12 7.18 6.48 12.4c-1.63 5.21-7.18 8.12-12.4 6.48s-8.11-7.18-6.47-12.4z" fill="#fff" fill-rule="evenodd"/></svg>