<svg viewBox="0 0 385 160.47" xmlns="http://www.w3.org/2000/svg"><g fill="#be8d2e"><path d="m71.3 68.55c-.29 0-.57-.11-.79-.34l-62.18-66.05h-3.75c-1.13 0-2.12.91-2.12 1.96v63.36c0 .6-.48 1.08-1.08 1.08s-1.08-.48-1.08-1.08v-63.36c0-2.23 1.96-4.12 4.28-4.12h4.22c.3 0 .58.12.79.34l62.5 66.39c.41.43.39 1.12-.05 1.53-.21.2-.47.29-.74.29zm-27.51.12c-.29 0-.59-.12-.8-.35l-18.79-20.64v19.89c0 .6-.48 1.08-1.08 1.08s-1.08-.48-1.08-1.08v-22.49c0-.6.48-1.08 1.08-1.08.3 0 .76.13.97.35l20.5 22.51c.4.44.37 1.12-.07 1.52-.21.19-.47.28-.73.28zm57.2.07c-.6 0-1.08-.48-1.08-1.08v-61.69c0-1.09-1.03-2.12-2.12-2.12h-15.51c-1.31 0-2.12 1.1-2.12 2.12v61.5c0 .6-.48 1.08-1.08 1.08s-1.08-.48-1.08-1.08v-61.5c0-2.36 1.92-4.28 4.28-4.28h15.51c2.28 0 4.28 2 4.28 4.28v61.69c0 .6-.48 1.08-1.08 1.08z"/><path d="m234.38 25.16c-4.87-1.18-9.39 2.39-12.37 4.76-1.02.81-6.13 5.49-9.25 6.65-1.64-.48-3.33-.82-4.87-.75-2.62.12-4.41.52-6.02 1.7-2.6 1.91-13.76-5.55-15.56-6.6-4.09-2.37-10.31-5.95-17.02-4.76-3.87.68-6.56 2.5-8.93 4.54-.08-.12-.21-.22-.38-.28-2.71-.9-1.52-2.3-2.66-4.27-.38-.66-1.13-1.09-1.91-.87-2.79.78-5.13 2.78-6.53 5.3-1.85 3.35-4.16.3-6.7.91 10.29-16.78 28.8-27.99 49.88-27.99s37.96 10.25 48.47 25.81c-1.64-1.88-3.53-3.51-6.16-4.15zm-42.32-23.82c-33.43 0-60.62 27.19-60.62 60.62 0 1.71.07 3.44.21 5.13.05.59.57 1.03 1.17.99.6-.05 1.04-.57.98-1.17-.14-1.63-.21-3.3-.21-4.95 0-10.59 2.83-20.54 7.78-29.12.6-.48 1.28-.73 2.1-.6 1.51.24 2.87 2.69 4.56 1.29 2.05-1.7 2.6-4.5 5.36-5.57.96-.37 1.74-.62 2.54-1.32-.61.54.8 3.42 1.13 3.88.48.66 1.35.96 2.12 1.21-2.22 2.03-4.27 4.14-6.92 5.49-.59.3.19.86.87.61 6-2.22 8.2-6.12 12.97-8.95 8.2-4.86 18.27 3.27 23.29 6.37 2 1.23 9.57 6.34 13.75 4.1 4.22-2.26 7.37-1.44 12.03.19 4.94 1.73 10.06 3.6 13.94 6 1.39.86 3.72-.39 2.33-1.25-3.61-2.23-8.23-3.87-12.72-5.54-.91-.34-2.03-.8-3.24-1.26 1.87-1.14 3.54-2.66 4.25-3.26 3.65-3.1 10.97-11.23 16.92-6.37 2.94 2.4 4.54 5.55 7.6 7.81 3.99 7.9 6.25 16.83 6.25 26.27 0 1.85-.09 3.71-.26 5.54-.06.59.38 1.12.97 1.18h.1c.55 0 1.02-.41 1.07-.97.18-1.9.27-3.83.27-5.74 0-33.43-27.19-60.62-60.62-60.62z"/><path d="m246.4 76.87c-4.1.46-8.44-1.67-13.03-3.92-3.97-1.95-8.06-3.96-12.16-4.25-4.5-.32-7.88 1.68-11.46 3.79-3.5 2.07-7.13 4.22-12.22 4.36-4.85.13-8.01-1.43-11.35-3.08-3.66-1.81-7.81-3.87-14.61-3.87-5.26 0-8.53 1.19-11.98 2.44-5.01 1.82-10.19 3.7-22.64 2.1-.59-.08-1.13.34-1.21.93s.34 1.13.93 1.21c12.96 1.67 18.64-.39 23.65-2.21 3.27-1.19 6.36-2.31 11.25-2.31 6.29 0 10.03 1.85 13.65 3.64 3.43 1.7 6.98 3.46 12.37 3.31 5.65-.16 9.69-2.55 13.26-4.66 3.42-2.03 6.38-3.77 10.21-3.5 3.68.26 7.58 2.18 11.36 4.04 4.22 2.07 8.57 4.21 12.85 4.21.46 0 .91-.02 1.37-.08.59-.07 1.02-.6.95-1.19s-.6-1.02-1.19-.95z"/><path d="m242.85 87.38c-4.22.17-5.98-.96-8.19-2.38-2.61-1.68-5.57-3.59-12.9-3.75-6.72-.15-10.14 1.56-13.43 3.22-3.35 1.69-6.52 3.28-13.34 2.84-7.43-.48-11.08-2.19-14.3-3.69-2.71-1.27-5.05-2.36-8.82-2.36-3.53 0-6.74 1.16-10.46 2.5-4.83 1.74-10.31 3.71-17.92 3.54-.59-.02-1.09.46-1.1 1.05-.01.6.46 1.09 1.06 1.1 8.02.18 13.7-1.87 18.7-3.67 3.53-1.27 6.58-2.37 9.73-2.37s5.32.95 7.9 2.16c3.23 1.51 7.24 3.39 15.08 3.89 7.41.48 10.99-1.32 14.45-3.06 3.2-1.61 6.23-3.13 12.42-2.99 6.71.15 9.29 1.81 11.78 3.41 2.19 1.41 4.26 2.74 8.55 2.74.29 0 .59 0 .9-.02.6-.02 1.06-.53 1.03-1.12-.02-.6-.51-1.06-1.12-1.04z"/><path d="m233.23 96.98c-.66 0-.98-.22-1.69-.76-1.5-1.13-3.54-2.67-10.46-2.28-5.01.28-9.42 1.82-13.68 3.31-4.29 1.5-8.35 2.92-12.44 2.77-3.58-.13-6.47-1.44-9.54-2.82-3.88-1.76-7.89-3.57-13.62-3.22-5.82.35-9.52 1.85-12.49 3.06-2.12.86-3.79 1.54-5.53 1.47-.58-.02-1.1.44-1.12 1.04s.44 1.1 1.03 1.12c2.19.09 4.16-.71 6.43-1.63 2.83-1.15 6.34-2.58 11.81-2.91 5.2-.32 8.96 1.39 12.59 3.03 3.12 1.41 6.34 2.87 10.35 3.01.23 0 .45.01.68.01 4.25 0 8.29-1.41 12.55-2.9 4.12-1.44 8.38-2.93 13.09-3.2 6.13-.34 7.81.92 9.04 1.85.78.59 1.58 1.19 2.98 1.2.59 0 1.08-.48 1.08-1.07 0-.6-.48-1.08-1.07-1.09z"/><path d="m221.42 105.64c-4.58.07-8.29 1.32-12.23 2.65-4.53 1.53-9.21 3.1-15.69 2.95-4.99-.12-7.58-1.29-10.33-2.52-3.97-1.78-8.07-3.63-18.93-2.91-.59.04-1.05.55-1.01 1.15s.56 1.05 1.15 1.01c10.33-.68 14.18 1.05 17.91 2.73 2.82 1.27 5.74 2.58 11.16 2.71.33 0 .65.01.97.01 6.34 0 10.97-1.56 15.46-3.07 3.77-1.27 7.33-2.47 11.57-2.53.6 0 1.07-.5 1.06-1.1 0-.6-.49-1.08-1.1-1.06z"/><path d="m308.35 78.9c-.1 0-.19-.01-.29-.04-16.21-4.43-24.24-.14-24.32-.1-.53.29-1.2.1-1.49-.42-.29-.53-.11-1.19.42-1.49.35-.2 8.8-4.79 25.97-.1.59.16.93.76.77 1.35-.13.49-.57.81-1.06.81z"/><path d="m305.54 68.88c-.51 0-.97-.37-1.06-.89-.46-2.55-.67-4.1-.67-6.57 0-22.63 16.99-40.35 38.67-40.35 9.58 0 19.3 3.72 26.67 10.21.52.52 1.05.75 1.5.74.53-.02.94-.36 1.19-.64l10.32-10.66c.46-.46.7-1.02.69-1.59-.02-.58-.29-1.12-.8-1.57-11.88-10.65-24.24-15.4-40.07-15.4-32.96 0-59.77 26.81-59.77 59.77 0 2.21.11 3.51.36 5.75.07.59-.36 1.12-.96 1.19-.6.06-1.13-.36-1.19-.96-.23-2.12-.37-3.59-.37-5.99 0-34.15 27.78-61.93 61.93-61.93 16.41 0 29.21 4.92 41.51 15.95.94.84 1.48 1.95 1.52 3.12.03 1.17-.43 2.29-1.31 3.17l-10.27 10.61c-.71.81-1.68 1.3-2.7 1.34-1.07-.02-2.16-.44-3.05-1.33-6.93-6.1-16.13-9.63-25.19-9.63-20.47 0-36.51 16.78-36.51 38.19 0 2.31.19 3.77.63 6.19.11.59-.28 1.15-.87 1.25l-.19.02z"/><path d="m316.55 90.77c-.11 0-.23-.02-.34-.06-13.14-4.35-27.95-.03-28.09 0-.58.17-1.19-.16-1.36-.74s.16-1.19.74-1.36c.63-.19 15.6-4.56 29.41 0 .58.19.89.81.7 1.38-.15.46-.58.75-1.04.75z"/><path d="m329.79 102.95c-4.91 0-9.18-.49-13.52-1.64-7.14-1.88-21.23 0-21.37.02-.61.07-1.15-.34-1.23-.94s.34-1.15.94-1.24c.6-.08 14.67-1.97 22.23.03 8.8 2.32 17.45 1.84 32.38-.03 7.49-.94 11.93-.11 15.84.62 4.64.86 8.64 1.61 16.83-.31.58-.14 1.18.23 1.32.82s-.23 1.18-.82 1.32c-8.63 2.03-13.05 1.2-17.73.33-3.94-.74-8.02-1.5-15.17-.6-8 1-14.25 1.61-19.7 1.61z"/><path d="m367.53 91.95c-.29 0-.57-.11-.78-.32-.41-.42-.43-1.08-.02-1.51.21-.22 2.16-2.08 6.33-.38.56.23.83.87.6 1.43s-.87.83-1.43.6c-2.78-1.14-3.9-.15-3.95-.11-.21.19-.49.29-.76.29z"/><path d="m328.79 114.28c-10.88 0-21.29-1.5-21.87-1.58-.6-.09-1.01-.64-.93-1.24.09-.6.64-1.01 1.24-.93.19.03 18.75 2.7 31.97.97 12.64-1.66 23.02-1.47 33.65.61.59.12.98.69.87 1.29-.12.59-.69.98-1.29.87-10.39-2.03-20.55-2.21-32.95-.58-3.38.44-7.07.61-10.7.61z"/><path d="m342.86 123.82c-2.13 0-4.38-.16-6.65-.55-.6-.1-1-.67-.89-1.27.1-.6.67-1.01 1.27-.89 9.68 1.67 19.13-1.32 19.23-1.35.58-.19 1.2.13 1.38.71.19.58-.13 1.19-.71 1.38-.32.1-6.22 1.97-13.62 1.97z"/><path d="m192.92 123.65c-7.25 0-11.2-2.6-11.42-2.75-.5-.34-.63-1.02-.29-1.52s1.02-.64 1.52-.3c.07.05 6.88 4.46 19.11 1.1.59-.16 1.19.18 1.35.77.16.58-.18 1.19-.77 1.35-3.61.99-6.79 1.36-9.5 1.36z"/><path d="m23.02 76.65c-.09 0-.19-.01-.28-.04-12.52-3.32-20.86-.08-20.95-.04-.56.23-1.2-.05-1.43-.61s.04-1.2.61-1.43c.36-.15 9.06-3.56 22.33-.04.58.15.93.76.78 1.34-.13.49-.57.82-1.06.82z"/><path d="m23.01 88.38c-.14 0-.29-.03-.43-.09-11.79-5.07-20.56-.11-20.65-.06-.52.3-1.2.12-1.5-.4s-.13-1.19.4-1.5c.4-.23 9.82-5.56 22.62-.06.56.24.81.88.58 1.44-.18.41-.58.66-1.01.66z"/><path d="m23.01 99.97c-.15 0-.3-.03-.44-.09-10.74-4.76-20.61-.06-20.71-.02-.54.27-1.2.04-1.46-.5-.27-.54-.04-1.2.5-1.47.44-.21 10.87-5.2 22.56-.02.55.25.8.89.56 1.45-.18.41-.58.65-1 .65z"/><path d="m23.01 111.63c-.14 0-.28-.03-.41-.08-7.53-3.06-20.84.02-20.97.05-.58.14-1.18-.23-1.32-.82s.23-1.18.82-1.32c.57-.14 14.12-3.27 22.3.05.56.23.83.87.6 1.43-.17.43-.58.68-1.02.68z"/><path d="m9.98 121.55c-5.93 0-8.82-1.11-9.01-1.18-.56-.22-.83-.86-.61-1.42s.86-.84 1.42-.62c.07.03 6.69 2.5 20.76-.37.59-.11 1.17.26 1.29.86.12.59-.26 1.17-.86 1.29-5.34 1.09-9.65 1.44-13 1.44z"/><path d="m92.93 77.74c-1.22 0-2.54-.08-3.96-.23-2.23-.24-4.47-.52-6.71-.79-10.31-1.27-20.98-2.58-31.28-.43-.59.12-1.17-.25-1.3-.85-.12-.59.26-1.17.85-1.3 10.66-2.23 21.51-.9 32 .4 2.23.27 4.46.55 6.68.79 5.34.57 8.97.03 11.1-1.67.48-.38 1.16-.3 1.54.17s.3 1.16-.17 1.54c-1.98 1.58-4.87 2.37-8.75 2.37z"/><path d="m61.73 88.38c-.56 0-1.03-.42-1.09-.98-.06-.6.37-1.14.98-1.2l2.61-.28c5.61-.61 11.4-1.25 16.93-.63 6.39.7 13.17 1.32 19.7.42.6-.08 1.15.34 1.23.94s-.34 1.15-.94 1.23c-6.78.92-13.71.3-20.24-.42-5.3-.59-10.97.03-16.46.63l-2.62.28h-.12z"/><path d="m71.78 99.97c-.47 0-.9-.3-1.05-.77-.18-.58.14-1.19.72-1.37.46-.15 11.6-3.54 29.75-.03.6.11.98.69.87 1.28s-.69.99-1.28.87c-17.62-3.4-28.56-.06-28.68-.03-.11.03-.22.05-.33.05z"/><path d="m91.05 112.07c-4.53 0-8.04-.42-8.28-.45-.6-.07-1.03-.62-.95-1.22.07-.6.61-1.02 1.22-.95.1.01 9.87 1.18 17.74-.4.6-.12 1.17.26 1.29.86.12.59-.27 1.17-.86 1.29-3.38.68-7.02.88-10.16.88z"/><path d="m96.16 122.09c-2.61 0-4.29-.28-4.39-.3-.6-.1-1-.67-.9-1.26.1-.6.66-1 1.26-.9.04 0 3.59.59 8.4 0 .6-.07 1.15.35 1.22.95.08.6-.35 1.15-.95 1.22-1.74.22-3.31.29-4.65.29z"/></g><path d="m382.81 155.88c1.19 0 2.19 1 2.19 2.19s-1 2.16-2.19 2.16-2.16-.98-2.16-2.16.98-2.19 2.16-2.19z" fill="#fff"/><path d="m0 160.23v-20.26h3.36l4.25 12.53v-12.53h3.07v20.26h-3.18l-4.43-13.17v13.17z" fill="#fff"/><path d="m29.2 152.94-1.42-9.01-1.42 9.01zm.43 2.78h-3.71l-.72 4.52h-3.24l3.76-20.27h4.23l3.82 20.27h-3.42z" fill="#fff"/><path d="m53.09 157.28h-1.88l-3.04-9.44v12.39h-3.12v-20.26h3.18l3.91 11.78 3.94-11.78h3.3v20.26h-3.24v-12.39z" fill="#fff"/><path d="m77.22 151.17h-2v6.17h2c.96 0 1.56-.49 1.56-1.56v-3.04c0-1.07-.61-1.56-1.56-1.56zm-2-2.84h1.88c.96 0 1.56-.49 1.56-1.56v-2.34c0-1.07-.61-1.56-1.56-1.56h-1.88v5.47zm4.54 1.36c1.77.29 2.37 1.65 2.37 3.21v3.33c0 2.55-1.97 4-5.04 4h-5.24v-20.27h5.3c3.07 0 4.86 1.45 4.86 4v2.55c0 1.45-.64 2.98-2.26 3.19z" fill="#fff"/><path d="m104.36 156.18c0 3.13-1.97 4.28-5.04 4.28h-.12c-3.07 0-5.04-1.13-5.04-4.28v-16.21h3.36v15.69c0 1.45.64 1.85 1.74 1.85s1.74-.41 1.74-1.85v-15.69h3.36z" fill="#fff"/><path d="m126.93 156.18c0 3.13-2.03 4.28-5.1 4.28h-.06c-3.07 0-5.1-1.13-5.1-4.28v-12.16c0-3.01 2.03-4.29 5.1-4.29h.06c3.07 0 5.1 1.28 5.1 4.29v3.71h-3.36v-3.19c0-1.42-.69-1.85-1.77-1.85s-1.77.44-1.77 1.85v11.12c0 1.42.69 1.85 1.77 1.85s1.77-.43 1.77-1.85v-3.68h3.36z" fill="#fff"/><path d="m149.32 156.18c0 3.13-2.03 4.28-5.1 4.28h-.06c-3.07 0-5.1-1.13-5.1-4.28v-12.16c0-3.01 2.03-4.29 5.1-4.29h.06c3.07 0 5.1 1.28 5.1 4.29v3.71h-3.36v-3.19c0-1.42-.69-1.85-1.77-1.85s-1.77.44-1.77 1.85v11.12c0 1.42.69 1.85 1.77 1.85s1.77-.43 1.77-1.85v-3.68h3.36z" fill="#fff"/><path d="m167.49 152.94-1.42-9.01-1.42 9.01zm.44 2.78h-3.71l-.72 4.52h-3.24l3.76-20.27h4.23l3.82 20.27h-3.42z" fill="#fff"/><path d="m202.38 157.51c1.1 0 1.85-.41 1.85-1.85v-11.12c0-1.45-.75-1.85-1.85-1.85s-1.85.41-1.85 1.85v11.12c0 1.45.75 1.85 1.85 1.85zm-.12-17.78h.23c3.07 0 5.1 1.22 5.1 4.29v12.16c0 3.07-2.03 4.28-5.1 4.28h-.23c-3.07 0-5.1-1.22-5.1-4.28v-12.16c0-3.1 2.03-4.29 5.1-4.29z" fill="#fff"/><path d="m225.9 160.23h-3.35v-7.21l-4.09-13.05h3.54l2.25 9.41 2.26-9.41h3.48l-4.09 13.05z" fill="#fff"/><path d="m247.29 147.21v-2.84c0-1.27-.72-1.74-1.71-1.74s-1.71.46-1.71 1.74v1.39c0 1.04.35 1.51 1.3 2.06l2.37 1.33c1.94 1.1 3.1 2 3.1 4.17v2.92c0 3.13-1.94 4.23-5.01 4.23h-.06c-3.07 0-5.01-1.07-5.01-4.23v-3.53h3.3v3.07c0 1.25.72 1.8 1.74 1.8s1.74-.55 1.74-1.8v-1.59c0-1.04-.32-1.56-1.33-2.11l-2.35-1.33c-1.97-1.13-3.1-2.06-3.1-4.17v-2.66c0-3.01 2.2-4.17 4.98-4.17h.06c2.78 0 4.98 1.16 4.98 4.17v3.3h-3.3z" fill="#fff"/><path d="m271.53 142.92h-3.38v17.31h-3.36v-17.31h-3.39v-2.95h10.13z" fill="#fff"/><path d="m282.87 160.23v-20.26h8.89v2.95h-5.53v5.56h4.63v2.95h-4.63v5.85h5.61v2.95z" fill="#fff"/><path d="m307.17 149.26h1.77c1.1 0 1.85-.41 1.85-1.85v-2.63c0-1.45-.75-1.85-1.85-1.85h-1.77v6.34zm4.26 10.97-2.58-8.08h-1.68v8.08h-3.36v-20.27h5.24c3.07 0 5.1 1.22 5.1 4.28v3.62c0 1.94-.81 3.16-2.2 3.76l2.89 8.6h-3.41z" fill="#fff"/><path d="m350.84 156.18c0 3.13-2.03 4.28-5.1 4.28h-.06c-3.07 0-5.1-1.13-5.1-4.28v-12.16c0-3.01 2.03-4.29 5.1-4.29h.06c3.07 0 5.1 1.28 5.1 4.29v3.71h-3.36v-3.19c0-1.42-.7-1.85-1.77-1.85s-1.77.44-1.77 1.85v11.12c0 1.42.69 1.85 1.77 1.85s1.77-.43 1.77-1.85v-3.68h3.36z" fill="#fff"/><path d="m368.19 157.51c1.1 0 1.85-.41 1.85-1.85v-11.12c0-1.45-.75-1.85-1.85-1.85s-1.85.41-1.85 1.85v11.12c0 1.45.75 1.85 1.85 1.85zm-.11-17.78h.23c3.07 0 5.1 1.22 5.1 4.29v12.16c0 3.07-2.03 4.28-5.1 4.28h-.23c-3.07 0-5.1-1.22-5.1-4.28v-12.16c0-3.1 2.03-4.29 5.1-4.29z" fill="#fff"/></svg>